<svg width="27" height="27" viewBox="0 0 27 27" fill="none" xmlns="http://www.w3.org/2000/svg">
<path d="M14.8918 22.6383V13.943H17.8663L18.3126 10.5533H14.8918V8.3895C14.8918 7.40841 15.1685 6.73981 16.6045 6.73981L18.4329 6.73907V3.7072C18.1167 3.66689 17.0313 3.57449 15.7679 3.57449C13.1299 3.57449 11.3238 5.15389 11.3238 8.05379V10.5533H8.34033V13.943H11.3238V22.6383H14.8918Z" fill="white"/>
<mask id="mask0_2_9" style="mask-type:luminance" maskUnits="userSpaceOnUse" x="8" y="3" width="11" height="20">
<path d="M14.8918 22.6383V13.943H17.8663L18.3126 10.5533H14.8918V8.3895C14.8918 7.40841 15.1685 6.73981 16.6045 6.73981L18.4329 6.73907V3.7072C18.1167 3.66689 17.0313 3.57449 15.7679 3.57449C13.1299 3.57449 11.3238 5.15389 11.3238 8.05379V10.5533H8.34033V13.943H11.3238V22.6383H14.8918Z" fill="white"/>
</mask>
<g mask="url(#mask0_2_9)">
<rect width="26.2128" height="26.2128" fill="white"/>
</g>
</svg>
