<svg width="27" height="27" viewBox="0 0 27 27" fill="none" xmlns="http://www.w3.org/2000/svg">
<path d="M13.1063 11.4383V14.7745H17.8253C17.1364 16.7161 15.2815 18.1106 13.1063 18.1106C10.3473 18.1106 8.10204 15.8654 8.10204 13.1064C8.10204 10.3474 10.3473 8.10212 13.1063 8.10212C14.3023 8.10212 15.4533 8.53082 16.3474 9.30982L18.5392 6.79434C17.038 5.48657 15.1097 4.76595 13.1063 4.76595C8.50738 4.76595 4.76587 8.50747 4.76587 13.1064C4.76587 17.7053 8.50738 21.4468 13.1063 21.4468C17.7052 21.4468 21.4467 17.7053 21.4467 13.1064V11.4383H13.1063Z" fill="black"/>
<mask id="mask0_2_20" style="mask-type:luminance" maskUnits="userSpaceOnUse" x="4" y="4" width="18" height="18">
<path d="M13.1063 11.4383V14.7745H17.8253C17.1364 16.7161 15.2815 18.1106 13.1063 18.1106C10.3473 18.1106 8.10204 15.8654 8.10204 13.1064C8.10204 10.3474 10.3473 8.10212 13.1063 8.10212C14.3023 8.10212 15.4533 8.53082 16.3474 9.30982L18.5392 6.79434C17.038 5.48657 15.1097 4.76595 13.1063 4.76595C8.50738 4.76595 4.76587 8.50747 4.76587 13.1064C4.76587 17.7053 8.50738 21.4468 13.1063 21.4468C17.7052 21.4468 21.4467 17.7053 21.4467 13.1064V11.4383H13.1063Z" fill="white"/>
</mask>
<g mask="url(#mask0_2_20)">
<rect width="26.2128" height="26.2128" fill="white"/>
</g>
</svg>
