<svg width="27" height="27" viewBox="0 0 27 27" fill="none" xmlns="http://www.w3.org/2000/svg">
<path d="M23.8297 6.71262C23.0842 7.04296 22.2843 7.26699 21.4439 7.36701C22.302 6.85311 22.9589 6.038 23.2703 5.06972C22.4653 5.54562 21.5767 5.89118 20.63 6.07851C19.8718 5.26972 18.7934 4.76595 17.5973 4.76595C15.3026 4.76595 13.4419 6.62656 13.4419 8.92005C13.4419 9.24532 13.4787 9.56302 13.5495 9.86682C10.0967 9.69339 7.03491 8.03911 4.98572 5.52536C4.62751 6.13799 4.42373 6.85182 4.42373 7.61381C4.42373 9.05548 5.15785 10.3275 6.2717 11.0717C5.59073 11.049 4.95027 10.8616 4.38957 10.5503V10.6022C4.38957 12.6147 5.82237 14.2943 7.7222 14.6765C7.37412 14.7702 7.00708 14.8221 6.62736 14.8221C6.35904 14.8221 6.09956 14.7955 5.84514 14.7449C6.3742 16.3966 7.90827 17.5978 9.72586 17.6307C8.30444 18.7446 6.51218 19.4065 4.56552 19.4065C4.23011 19.4065 3.89974 19.3863 3.57446 19.3496C5.41356 20.5305 7.59693 21.2191 9.94357 21.2191C17.5872 21.2191 21.7654 14.8879 21.7654 9.39724L21.7515 8.85931C22.5678 8.27704 23.2741 7.54547 23.8297 6.71262Z" fill="#010002"/>
<mask id="mask0_2_31" style="mask-type:luminance" maskUnits="userSpaceOnUse" x="3" y="4" width="21" height="18">
<path d="M23.8297 6.71262C23.0842 7.04296 22.2843 7.26699 21.4439 7.36701C22.302 6.85311 22.9589 6.038 23.2703 5.06972C22.4653 5.54562 21.5767 5.89118 20.63 6.07851C19.8718 5.26972 18.7934 4.76595 17.5973 4.76595C15.3026 4.76595 13.4419 6.62656 13.4419 8.92005C13.4419 9.24532 13.4787 9.56302 13.5495 9.86682C10.0967 9.69339 7.03491 8.03911 4.98572 5.52536C4.62751 6.13799 4.42373 6.85182 4.42373 7.61381C4.42373 9.05548 5.15785 10.3275 6.2717 11.0717C5.59073 11.049 4.95027 10.8616 4.38957 10.5503V10.6022C4.38957 12.6147 5.82237 14.2943 7.7222 14.6765C7.37412 14.7702 7.00708 14.8221 6.62736 14.8221C6.35904 14.8221 6.09956 14.7955 5.84514 14.7449C6.3742 16.3966 7.90827 17.5978 9.72586 17.6307C8.30444 18.7446 6.51218 19.4065 4.56552 19.4065C4.23011 19.4065 3.89974 19.3863 3.57446 19.3496C5.41356 20.5305 7.59693 21.2191 9.94357 21.2191C17.5872 21.2191 21.7654 14.8879 21.7654 9.39724L21.7515 8.85931C22.5678 8.27704 23.2741 7.54547 23.8297 6.71262Z" fill="white"/>
</mask>
<g mask="url(#mask0_2_31)">
<rect width="26.2128" height="26.2128" fill="white"/>
</g>
</svg>
